<svg width="36" height="39" viewBox="0 0 36 39" fill="none" xmlns="http://www.w3.org/2000/svg">
<g id="fluent-emoji-high-contrast:pear" clip-path="url(#clip0_17_3561)">
<path id="Vector" d="M2.35956 5.93358L2.81404 5.75149L7.49606 3.87561L7.49782 3.87491L7.49782 3.87491C8.6215 3.42963 9.85709 3.37946 11.0117 3.73261C12.0412 4.04749 12.9526 4.66652 13.6367 5.50621C15.5497 4.80384 17.6545 4.88114 19.5175 5.72768C21.447 6.60449 22.9558 8.23287 23.7179 10.2507C23.7181 10.2514 23.7184 10.2521 23.7187 10.2528L23.833 10.5475L23.8349 10.5525L23.8349 10.5525C24.4113 12.0875 25.4953 13.358 26.8902 14.1414L26.8994 14.1466L26.9058 14.1505C29.5372 15.6404 31.5713 18.0384 32.6534 20.9191L32.6535 20.9193C35.1429 27.5567 31.9575 35.0463 25.4942 37.625L25.4941 37.6251C19.0263 40.2041 11.76 36.8901 9.26738 30.2408L2.35956 5.93358ZM2.35956 5.93358L2.53206 6.39179M2.35956 5.93358L2.53206 6.39179M2.53206 6.39179C3.55464 9.10806 6.41075 10.5485 9.09693 9.75174C8.74476 10.5305 8.51292 11.3641 8.4123 12.2223C8.25592 13.556 8.42117 14.9092 8.89382 16.1619L8.8938 16.162M2.53206 6.39179L8.8938 16.162M8.8938 16.162L8.89545 16.1662M8.8938 16.162L8.89545 16.1662M8.89545 16.1662L9.01024 16.4623C9.58323 17.9978 9.61456 19.6931 9.09848 21.2504M8.89545 16.1662L9.09848 21.2504M14.6054 8.70452C14.0393 8.93193 13.5209 9.27191 13.0796 9.70609C12.6356 10.1431 12.2785 10.667 12.0296 11.2481C11.7807 11.8294 11.645 12.456 11.6308 13.0923C11.6166 13.7279 11.7239 14.3599 11.9462 14.952C11.9464 14.9526 11.9466 14.9531 11.9468 14.9537L12.0603 15.2493L12.0617 15.253L12.0617 15.253C12.909 17.5122 12.9597 20.0059 12.2054 22.2992L12.2041 22.3045L12.1975 22.3243C11.4705 24.5091 11.5154 26.8892 12.3241 29.0429L12.3243 29.0432C14.1729 33.9762 19.5433 36.4068 24.3031 34.5073L24.3032 34.5073C29.0674 32.6074 31.4516 27.0599 29.5979 22.115L14.6054 8.70452ZM14.6054 8.70452L14.6088 8.70336L14.6203 8.69876C15.7738 8.23724 17.0571 8.26719 18.1895 8.78239C19.3225 9.29787 20.2155 10.2589 20.6669 11.4589L20.6669 11.4589L20.6684 11.463L20.7828 11.7592C20.7831 11.7598 20.7833 11.7605 20.7836 11.7611C21.6363 14.0245 23.2397 15.9071 25.3135 17.0718C27.2697 18.1774 28.7883 19.9622 29.5977 22.1146L14.6054 8.70452ZM9.09848 21.2504C8.12596 24.1741 8.18569 27.3577 9.26733 30.2406L9.09848 21.2504Z" fill="#4D6213" stroke="#4D6213"/>
</g>
<defs>
<clipPath id="clip0_17_3561">
<rect width="36" height="39" fill="white"/>
</clipPath>
</defs>
</svg>
